<?xml version="1.0" encoding="utf-8"?>

<!-- Uploaded to: SVG Repo, www.svgrepo.com, Generator: SVG Repo Mixer Tools -->
<svg fill="#000000"  height="800px" width="800px" version="1.1" id="Layer_1" xmlns="http://www.w3.org/2000/svg" xmlns:xlink="http://www.w3.org/1999/xlink" 
	 viewBox="0 0 24 24" xml:space="preserve" fill-rule="evenodd">
<path  stroke ="#000000" fill="#ffbf00" stroke-width = "1.5" d="M16,9V8h-1V6h-1V4h-1V2h-2v2h-1v2H9v2H8v1H2v2h1v1h1v1h1v1h1v4H5v2H4v2h3v-1h2v-1h1v-1h4v1h1v1h2v1h3v-2h-1v-2h-1v-4h1v-1h1
	v-1h1v-1h1V9H16z M16"  />

</svg>