<!DOCTYPE svg PUBLIC "-//W3C//DTD SVG 1.1//EN" "http://www.w3.org/Graphics/SVG/1.1/DTD/svg11.dtd">
<!-- Uploaded to: SVG Repo, www.svgrepo.com, Transformed by: SVG Repo Mixer Tools -->
<svg fill="#000000" height="800px" width="800px" version="1.1" id="Layer_1" xmlns="http://www.w3.org/2000/svg" xmlns:xlink="http://www.w3.org/1999/xlink" viewBox="-2.4 -2.4 28.80 28.80" xml:space="preserve" stroke="#000000" stroke-width="0.00024000000000000003">
<g id="SVGRepo_bgCarrier" stroke-width="0" transform="translate(5.040000000000001,5.040000000000001), scale(0.58)">
<rect x="-2.4" y="-2.4" width="28.80" height="28.80" rx="8.64" fill="#f59a9b" strokewidth="0"/>
</g>
<g id="SVGRepo_tracerCarrier" stroke-linecap="round" stroke-linejoin="round" stroke="#ffbf00" stroke-width="1.056"> <path d="M18,6V3h-1V2h-4v1h-1h-1V2H7v1H6v3H2v6h1v10h18V12h1V6H18z M20,10h-7V8h7V10z M19,20h-6v-8h6V20z M5,12h6v8H5V12z M4,8h7v2 H4V8z M8,4h2v1h1v1H8V4z M14,4h2v2h-3V5h1V4z"/> </g>
<g id="SVGRepo_iconCarrier"> <path d="M18,6V3h-1V2h-4v1h-1h-1V2H7v1H6v3H2v6h1v10h18V12h1V6H18z M20,10h-7V8h7V10z M19,20h-6v-8h6V20z M5,12h6v8H5V12z M4,8h7v2 H4V8z M8,4h2v1h1v1H8V4z M14,4h2v2h-3V5h1V4z"/> </g>
</svg>